<svg width="320" height="320" viewBox="0 0 320 320" fill="none" xmlns="http://www.w3.org/2000/svg">
  <defs>
    <linearGradient id="pvBlueDarkBg" x1="52" y1="162" x2="168" y2="256" gradientUnits="userSpaceOnUse">
      <stop offset="0" stop-color="#5D6D84"/>
      <stop offset="1" stop-color="#9AA8BA"/>
    </linearGradient>
    <linearGradient id="pvSilverDarkBg" x1="104" y1="92" x2="222" y2="206" gradientUnits="userSpaceOnUse">
      <stop offset="0" stop-color="#FBFDFF"/>
      <stop offset="0.38" stop-color="#DFE6F0"/>
      <stop offset="1" stop-color="#97A5B8"/>
    </linearGradient>
    <linearGradient id="pvGoldDarkBg" x1="156" y1="64" x2="268" y2="164" gradientUnits="userSpaceOnUse">
      <stop offset="0" stop-color="#F2E2C9"/>
      <stop offset="0.45" stop-color="#D8A56A"/>
      <stop offset="1" stop-color="#976A3F"/>
    </linearGradient>
    <filter id="pvMiddleShadowDarkBg" x="84" y="84" width="152" height="148" filterUnits="userSpaceOnUse" color-interpolation-filters="sRGB">
      <feDropShadow dx="0" dy="7" stdDeviation="5" flood-color="#050B14" flood-opacity="0.28"/>
    </filter>
  </defs>

  <g transform="rotate(-18 111 209)">
    <rect x="54" y="154" width="114" height="110" rx="34" stroke="#DCE5F2" stroke-opacity="0.12" stroke-width="22"/>
    <rect x="54" y="154" width="114" height="110" rx="34" stroke="url(#pvBlueDarkBg)" stroke-width="18"/>
  </g>
  <g transform="rotate(16 160 158)" filter="url(#pvMiddleShadowDarkBg)">
    <rect x="103" y="103" width="114" height="110" rx="34" stroke="#192230" stroke-opacity="0.22" stroke-width="18"/>
    <rect x="103" y="103" width="114" height="110" rx="34" stroke="url(#pvSilverDarkBg)" stroke-width="14" opacity="0.99"/>
  </g>
  <g transform="rotate(-18 209 111)">
    <rect x="152" y="56" width="114" height="110" rx="34" stroke="#FFF7E8" stroke-opacity="0.1" stroke-width="22"/>
    <rect x="152" y="56" width="114" height="110" rx="34" stroke="url(#pvGoldDarkBg)" stroke-width="18"/>
  </g>

  <path d="M120 202C134 191 145 180 160 160C175 140 186 129 200 118" stroke="#E2E8F0" stroke-opacity="0.14" stroke-width="7" stroke-linecap="round"/>
  <path d="M122 152C132 146 141 139 149 130" stroke="#FFFFFF" stroke-opacity="0.76" stroke-width="3.5" stroke-linecap="round"/>
  <path d="M171 190C181 183 190 174 198 164" stroke="#94A3B8" stroke-opacity="0.26" stroke-width="3.5" stroke-linecap="round"/>
</svg>
